# Blender v2.80 (sub 75) OBJ File: ''
# www.blender.org
mtllib Ciudad.mtl
o Ciudad
v -6.000000 0.399999 6.000000
v -6.000000 0.000001 -6.000000
v -6.000000 -0.000001 6.000000
v -6.000000 0.400001 -6.000000
v -4.000000 8.000000 1.800001
v -4.000000 0.400000 -0.000000
v -4.000000 0.400000 1.800000
v -4.000000 8.000000 0.000001
v -1.800000 7.800001 -2.399999
v -1.800000 0.400001 -3.800000
v -1.800000 0.400000 -2.400000
v -1.800000 7.800001 -3.799999
v 0.400000 7.800000 4.000001
v 0.400000 0.400000 2.600000
v 0.400000 0.399999 4.000000
v 0.400000 7.800000 2.600001
v 2.800000 8.000000 0.200001
v 2.800000 0.400000 -1.600000
v 2.800000 0.400000 0.200000
v 2.800000 8.000000 -1.599999
v -2.600000 0.400000 1.800000
v -2.600000 0.400000 -0.000000
v -2.600000 8.000000 1.800001
v -2.600000 8.000000 0.000001
v -0.400000 0.400000 -2.400000
v -0.400000 0.400001 -3.800000
v -0.400000 7.800001 -2.399999
v -0.400000 7.800001 -3.799999
v 1.800000 0.399999 4.000000
v 1.800000 0.400000 2.600000
v 1.800000 7.800000 4.000001
v 1.800000 7.800000 2.600001
v 4.200000 0.400000 0.200000
v 4.200000 0.400000 -1.600000
v 4.200000 8.000000 0.200001
v 4.200000 8.000000 -1.599999
v 6.000000 -0.000001 6.000000
v 6.000000 0.000001 -6.000000
v 6.000000 0.399999 6.000000
v 6.000000 0.400001 -6.000000
v 6.000000 -0.000001 6.000000
v -6.000000 0.399999 6.000000
v -6.000000 -0.000001 6.000000
v 6.000000 0.399999 6.000000
v 1.800000 0.399999 4.000000
v 0.400000 7.800000 4.000001
v 0.400000 0.399999 4.000000
v 1.800000 7.800000 4.000001
v -2.600000 0.400000 1.800000
v -4.000000 8.000000 1.800001
v -4.000000 0.400000 1.800000
v -2.600000 8.000000 1.800001
v 4.200000 0.400000 0.200000
v 2.800000 8.000000 0.200001
v 2.800000 0.400000 0.200000
v 4.200000 8.000000 0.200001
v -0.400000 0.400000 -2.400000
v -1.800000 7.800001 -2.399999
v -1.800000 0.400000 -2.400000
v -0.400000 7.800001 -2.399999
v 0.400000 0.400000 2.600000
v 0.400000 7.800000 2.600001
v 1.800000 0.400000 2.600000
v 1.800000 7.800000 2.600001
v -4.000000 0.400000 -0.000000
v -4.000000 8.000000 0.000001
v -2.600000 0.400000 -0.000000
v -2.600000 8.000000 0.000001
v 2.800000 0.400000 -1.600000
v 2.800000 8.000000 -1.599999
v 4.200000 0.400000 -1.600000
v 4.200000 8.000000 -1.599999
v -1.800000 0.400001 -3.800000
v -1.800000 7.800001 -3.799999
v -0.400000 0.400001 -3.800000
v -0.400000 7.800001 -3.799999
v -6.000000 0.000001 -6.000000
v -6.000000 0.400001 -6.000000
v 6.000000 0.000001 -6.000000
v 6.000000 0.400001 -6.000000
v -6.000000 0.000001 -6.000000
v 6.000000 -0.000001 6.000000
v -6.000000 -0.000001 6.000000
v 6.000000 0.000001 -6.000000
v -6.000000 0.399999 6.000000
v 6.000000 0.399999 6.000000
v 0.400000 0.399999 4.000000
v 1.800000 0.399999 4.000000
v 0.400000 0.400000 2.600000
v 1.800000 0.400000 2.600000
v -4.000000 0.400000 1.800000
v -2.600000 0.400000 1.800000
v 2.800000 0.400000 0.200000
v 4.200000 0.400000 0.200000
v -4.000000 0.400000 -0.000000
v -2.600000 0.400000 -0.000000
v 2.800000 0.400000 -1.600000
v 4.200000 0.400000 -1.600000
v -1.800000 0.400000 -2.400000
v -0.400000 0.400000 -2.400000
v -1.800000 0.400001 -3.800000
v -0.400000 0.400001 -3.800000
v -6.000000 0.400001 -6.000000
v 6.000000 0.400001 -6.000000
v 0.400000 7.800000 4.000001
v 1.800000 7.800000 4.000001
v 0.400000 7.800000 2.600001
v 1.800000 7.800000 2.600001
v -1.800000 7.800001 -2.399999
v -0.400000 7.800001 -2.399999
v -1.800000 7.800001 -3.799999
v -0.400000 7.800001 -3.799999
v -4.000000 8.000000 1.800001
v -2.600000 8.000000 1.800001
v -4.000000 8.000000 0.000001
v -2.600000 8.000000 0.000001
v 2.800000 8.000000 0.200001
v 4.200000 8.000000 0.200001
v 2.800000 8.000000 -1.599999
v 4.200000 8.000000 -1.599999
vt 0.306641 0.500000
vt 0.306641 0.500000
vt 0.306641 0.500000
vt 0.306641 0.500000
vt 0.845703 0.500000
vt 0.845703 0.500000
vt 0.845703 0.500000
vt 0.845703 0.500000
vt 0.845703 0.500000
vt 0.845703 0.500000
vt 0.845703 0.500000
vt 0.845703 0.500000
vt 0.845703 0.500000
vt 0.845703 0.500000
vt 0.845703 0.500000
vt 0.845703 0.500000
vt 0.845703 0.500000
vt 0.845703 0.500000
vt 0.845703 0.500000
vt 0.845703 0.500000
vt 0.845703 0.500000
vt 0.845703 0.500000
vt 0.845703 0.500000
vt 0.845703 0.500000
vt 0.845703 0.500000
vt 0.845703 0.500000
vt 0.845703 0.500000
vt 0.845703 0.500000
vt 0.845703 0.500000
vt 0.845703 0.500000
vt 0.845703 0.500000
vt 0.845703 0.500000
vt 0.845703 0.500000
vt 0.845703 0.500000
vt 0.845703 0.500000
vt 0.845703 0.500000
vt 0.306641 0.500000
vt 0.306641 0.500000
vt 0.306641 0.500000
vt 0.306641 0.500000
vt 0.306641 0.500000
vt 0.306641 0.500000
vt 0.306641 0.500000
vt 0.306641 0.500000
vt 0.845703 0.500000
vt 0.845703 0.500000
vt 0.845703 0.500000
vt 0.845703 0.500000
vt 0.845703 0.500000
vt 0.845703 0.500000
vt 0.845703 0.500000
vt 0.845703 0.500000
vt 0.845703 0.500000
vt 0.845703 0.500000
vt 0.845703 0.500000
vt 0.845703 0.500000
vt 0.845703 0.500000
vt 0.845703 0.500000
vt 0.845703 0.500000
vt 0.845703 0.500000
vt 0.845703 0.500000
vt 0.845703 0.500000
vt 0.845703 0.500000
vt 0.845703 0.500000
vt 0.845703 0.500000
vt 0.845703 0.500000
vt 0.845703 0.500000
vt 0.845703 0.500000
vt 0.845703 0.500000
vt 0.845703 0.500000
vt 0.845703 0.500000
vt 0.845703 0.500000
vt 0.845703 0.500000
vt 0.845703 0.500000
vt 0.845703 0.500000
vt 0.845703 0.500000
vt 0.306641 0.500000
vt 0.306641 0.500000
vt 0.306641 0.500000
vt 0.306641 0.500000
vt 0.306641 0.500000
vt 0.306641 0.500000
vt 0.306641 0.500000
vt 0.306641 0.500000
vt 0.306641 0.500000
vt 0.306641 0.500000
vt 0.306641 0.500000
vt 0.306641 0.500000
vt 0.306641 0.500000
vt 0.306641 0.500000
vt 0.306641 0.500000
vt 0.306641 0.500000
vt 0.306641 0.500000
vt 0.306641 0.500000
vt 0.306641 0.500000
vt 0.306641 0.500000
vt 0.306641 0.500000
vt 0.306641 0.500000
vt 0.306641 0.500000
vt 0.306641 0.500000
vt 0.306641 0.500000
vt 0.306641 0.500000
vt 0.306641 0.500000
vt 0.306641 0.500000
vt 0.845703 0.500000
vt 0.845703 0.500000
vt 0.845703 0.500000
vt 0.845703 0.500000
vt 0.845703 0.500000
vt 0.845703 0.500000
vt 0.845703 0.500000
vt 0.845703 0.500000
vt 0.845703 0.500000
vt 0.845703 0.500000
vt 0.845703 0.500000
vt 0.845703 0.500000
vt 0.845703 0.500000
vt 0.845703 0.500000
vt 0.845703 0.500000
vt 0.845703 0.500000
vn -1.0000 0.0000 0.0000
vn 1.0000 -0.0000 0.0000
vn 0.0000 0.0000 1.0000
vn 0.0000 0.0000 -1.0000
vn 0.0000 -1.0000 -0.0000
vn -0.0000 1.0000 0.0000
usemtl palette
s 1
f 1/1/1 2/2/1 3/3/1
f 4/4/1 2/2/1 1/1/1
f 5/5/1 6/6/1 7/7/1
f 8/8/1 6/6/1 5/5/1
f 9/9/1 10/10/1 11/11/1
f 12/12/1 10/10/1 9/9/1
f 13/13/1 14/14/1 15/15/1
f 16/16/1 14/14/1 13/13/1
f 17/17/1 18/18/1 19/19/1
f 20/20/1 18/18/1 17/17/1
f 21/21/2 22/22/2 23/23/2
f 23/23/2 22/22/2 24/24/2
f 25/25/2 26/26/2 27/27/2
f 27/27/2 26/26/2 28/28/2
f 29/29/2 30/30/2 31/31/2
f 31/31/2 30/30/2 32/32/2
f 33/33/2 34/34/2 35/35/2
f 35/35/2 34/34/2 36/36/2
f 37/37/2 38/38/2 39/39/2
f 39/39/2 38/38/2 40/40/2
f 41/41/3 42/42/3 43/43/3
f 44/44/3 42/42/3 41/41/3
f 45/45/3 46/46/3 47/47/3
f 48/48/3 46/46/3 45/45/3
f 49/49/3 50/50/3 51/51/3
f 52/52/3 50/50/3 49/49/3
f 53/53/3 54/54/3 55/55/3
f 56/56/3 54/54/3 53/53/3
f 57/57/3 58/58/3 59/59/3
f 60/60/3 58/58/3 57/57/3
f 61/61/4 62/62/4 63/63/4
f 63/63/4 62/62/4 64/64/4
f 65/65/4 66/66/4 67/67/4
f 67/67/4 66/66/4 68/68/4
f 69/69/4 70/70/4 71/71/4
f 71/71/4 70/70/4 72/72/4
f 73/73/4 74/74/4 75/75/4
f 75/75/4 74/74/4 76/76/4
f 77/77/4 78/78/4 79/79/4
f 79/79/4 78/78/4 80/80/4
f 81/81/5 82/82/5 83/83/5
f 84/84/5 82/82/5 81/81/5
f 85/85/6 86/86/6 87/87/6
f 87/87/6 86/86/6 88/88/6
f 85/85/6 87/87/6 89/89/6
f 88/88/6 86/86/6 90/90/6
f 85/85/6 89/89/6 91/91/6
f 89/89/6 90/90/6 91/91/6
f 91/91/6 90/90/6 92/92/6
f 90/90/6 86/86/6 93/93/6
f 92/92/6 90/90/6 93/93/6
f 93/93/6 86/86/6 94/94/6
f 85/85/6 91/91/6 95/95/6
f 92/92/6 93/93/6 96/96/6
f 96/96/6 93/93/6 97/97/6
f 95/95/6 96/96/6 97/97/6
f 94/94/6 86/86/6 98/98/6
f 95/95/6 97/97/6 99/99/6
f 97/97/6 98/98/6 99/99/6
f 99/99/6 98/98/6 100/100/6
f 95/95/6 99/99/6 101/101/6
f 100/100/6 98/98/6 102/102/6
f 85/85/6 95/95/6 103/103/6
f 101/101/6 102/102/6 103/103/6
f 95/95/6 101/101/6 103/103/6
f 98/98/6 86/86/6 104/104/6
f 103/103/6 102/102/6 104/104/6
f 102/102/6 98/98/6 104/104/6
f 105/105/6 106/106/6 107/107/6
f 107/107/6 106/106/6 108/108/6
f 109/109/6 110/110/6 111/111/6
f 111/111/6 110/110/6 112/112/6
f 113/113/6 114/114/6 115/115/6
f 115/115/6 114/114/6 116/116/6
f 117/117/6 118/118/6 119/119/6
f 119/119/6 118/118/6 120/120/6
