# MagicaVoxel @ Ephtracy

# group
o 

# material
mtllib Entrenamiento.mtl
usemtl palette

# normals
vn -1 0 0
vn 1 0 0
vn 0 0 1
vn 0 0 -1
vn 0 -1 0
vn 0 1 0

# texcoords
vt 0.306641 0.5
vt 0.779297 0.5
vt 0.841797 0.5

# verts
v -12.8 -4.4 12.8
v -12.8 -4.4 -12.8
v -12.8 -3.3 12.8
v -12.8 -3.3 -12.8
v -12.8 3.8 12.8
v -12.8 3.8 -12.8
v -8.6 -3.3 8.3
v -8.6 -3.3 -8.5
v -8.6 -1.8 8.3
v -8.6 -1.8 -8.5
v 7.5 -3.3 7.3
v 7.5 -3.3 -7.4
v 7.5 -1.8 7.3
v 7.5 -1.8 -7.4
v 11.9 -3.3 12
v 11.9 -3.3 -12
v 11.9 3.8 12
v 11.9 3.8 -12
v -12 -3.3 12
v -12 -3.3 -12
v -12 3.8 12
v -12 3.8 -12
v -7.6 -3.3 7.3
v -7.6 -3.3 -7.4
v -7.6 -1.8 7.3
v -7.6 -1.8 -7.4
v 8.5 -3.3 8.3
v 8.5 -3.3 -8.5
v 8.5 -1.8 8.3
v 8.5 -1.8 -8.5
v 12.8 -4.4 12.8
v 12.8 -4.4 -12.8
v 12.8 -3.3 12.8
v 12.8 -3.3 -12.8
v 12.8 3.8 12.8
v 12.8 3.8 -12.8
v -12.8 -4.4 12.8
v -12.8 -3.3 12.8
v -12.8 3.8 12.8
v 12.8 -4.4 12.8
v 12.8 -3.3 12.8
v 12.8 3.8 12.8
v -8.6 -3.3 8.3
v -8.6 -1.8 8.3
v 8.5 -3.3 8.3
v 8.5 -1.8 8.3
v -7.6 -3.3 -7.4
v -7.6 -1.8 -7.4
v 7.5 -3.3 -7.4
v 7.5 -1.8 -7.4
v -12 -3.3 -12
v -12 3.8 -12
v 11.9 -3.3 -12
v 11.9 3.8 -12
v -12 -3.3 12
v -12 3.8 12
v 11.9 -3.3 12
v 11.9 3.8 12
v -7.6 -3.3 7.3
v -7.6 -1.8 7.3
v 7.5 -3.3 7.3
v 7.5 -1.8 7.3
v -8.6 -3.3 -8.5
v -8.6 -1.8 -8.5
v 8.5 -3.3 -8.5
v 8.5 -1.8 -8.5
v -12.8 -4.4 -12.8
v -12.8 -3.3 -12.8
v -12.8 3.8 -12.8
v 12.8 -4.4 -12.8
v 12.8 -3.3 -12.8
v 12.8 3.8 -12.8
v -12.8 -4.4 12.8
v 12.8 -4.4 12.8
v -12.8 -4.4 -12.8
v 12.8 -4.4 -12.8
v -12 -3.3 12
v 11.9 -3.3 12
v -11.7 -3.3 11.7
v 11.6 -3.3 11.7
v -8.6 -3.3 8.3
v 8.5 -3.3 8.3
v -7.6 -3.3 7.3
v 7.5 -3.3 7.3
v -7.3 -3.3 7
v -0.3 -3.3 7
v -3.7998e-007 -3.3 7
v 7.2 -3.3 7
v -7.3 -3.3 3.7998e-007
v -0.3 -3.3 3.7998e-007
v -3.7998e-007 -3.3 3.7998e-007
v 7.2 -3.3 3.7998e-007
v -7.3 -3.3 -0.3
v -0.3 -3.3 -0.3
v -3.7998e-007 -3.3 -0.3
v 7.2 -3.3 -0.3
v -7.3 -3.3 -7.1
v -0.3 -3.3 -7.1
v -3.7998e-007 -3.3 -7.1
v 7.2 -3.3 -7.1
v -7.6 -3.3 -7.4
v 7.5 -3.3 -7.4
v -8.6 -3.3 -8.5
v 8.5 -3.3 -8.5
v -11.7 -3.3 -11.7
v 11.6 -3.3 -11.7
v -12 -3.3 -12
v 11.9 -3.3 -12
v -8.6 -1.8 8.3
v 8.5 -1.8 8.3
v -7.6 -1.8 7.3
v 7.5 -1.8 7.3
v -7.6 -1.8 -7.4
v 7.5 -1.8 -7.4
v -8.6 -1.8 -8.5
v 8.5 -1.8 -8.5
v -12.8 3.8 12.8
v 12.8 3.8 12.8
v -12 3.8 12
v 11.9 3.8 12
v -12 3.8 -12
v 11.9 3.8 -12
v -12.8 3.8 -12.8
v 12.8 3.8 -12.8

# faces
f 3/1/1 2/1/1 1/1/1
f 4/1/1 2/1/1 3/1/1
f 5/2/1 4/2/1 3/2/1
f 6/2/1 4/2/1 5/2/1
f 9/2/1 8/2/1 7/2/1
f 10/2/1 8/2/1 9/2/1
f 13/2/1 12/2/1 11/2/1
f 14/2/1 12/2/1 13/2/1
f 17/2/1 16/2/1 15/2/1
f 18/2/1 16/2/1 17/2/1
f 19/2/2 20/2/2 21/2/2
f 21/2/2 20/2/2 22/2/2
f 23/2/2 24/2/2 25/2/2
f 25/2/2 24/2/2 26/2/2
f 27/2/2 28/2/2 29/2/2
f 29/2/2 28/2/2 30/2/2
f 31/1/2 32/1/2 33/1/2
f 33/1/2 32/1/2 34/1/2
f 33/2/2 34/2/2 35/2/2
f 35/2/2 34/2/2 36/2/2
f 40/1/3 38/1/3 37/1/3
f 41/2/3 39/2/3 38/2/3
f 41/1/3 38/1/3 40/1/3
f 42/2/3 39/2/3 41/2/3
f 45/2/3 44/2/3 43/2/3
f 46/2/3 44/2/3 45/2/3
f 49/2/3 48/2/3 47/2/3
f 50/2/3 48/2/3 49/2/3
f 53/2/3 52/2/3 51/2/3
f 54/2/3 52/2/3 53/2/3
f 55/2/4 56/2/4 57/2/4
f 57/2/4 56/2/4 58/2/4
f 59/2/4 60/2/4 61/2/4
f 61/2/4 60/2/4 62/2/4
f 63/2/4 64/2/4 65/2/4
f 65/2/4 64/2/4 66/2/4
f 67/1/4 68/1/4 70/1/4
f 68/2/4 69/2/4 71/2/4
f 70/1/4 68/1/4 71/1/4
f 71/2/4 69/2/4 72/2/4
f 75/1/5 74/1/5 73/1/5
f 76/1/5 74/1/5 75/1/5
f 77/3/6 78/3/6 79/3/6
f 79/3/6 78/3/6 80/3/6
f 79/1/6 80/1/6 81/1/6
f 81/1/6 80/1/6 82/1/6
f 83/3/6 84/3/6 85/3/6
f 85/3/6 84/3/6 86/3/6
f 86/3/6 84/3/6 87/3/6
f 87/3/6 84/3/6 88/3/6
f 83/3/6 85/3/6 89/3/6
f 85/1/6 86/1/6 89/1/6
f 86/3/6 87/3/6 90/3/6
f 89/1/6 86/1/6 90/1/6
f 87/1/6 88/1/6 91/1/6
f 90/3/6 87/3/6 91/3/6
f 88/3/6 84/3/6 92/3/6
f 91/1/6 88/1/6 92/1/6
f 90/3/6 91/3/6 93/3/6
f 89/3/6 90/3/6 93/3/6
f 91/3/6 92/3/6 93/3/6
f 83/3/6 89/3/6 93/3/6
f 93/3/6 92/3/6 94/3/6
f 94/3/6 92/3/6 95/3/6
f 92/3/6 84/3/6 96/3/6
f 95/3/6 92/3/6 96/3/6
f 83/3/6 93/3/6 97/3/6
f 93/1/6 94/1/6 97/1/6
f 94/3/6 95/3/6 98/3/6
f 97/1/6 94/1/6 98/1/6
f 95/1/6 96/1/6 99/1/6
f 98/3/6 95/3/6 99/3/6
f 96/3/6 84/3/6 100/3/6
f 99/1/6 96/1/6 100/1/6
f 83/3/6 97/3/6 101/3/6
f 98/3/6 99/3/6 101/3/6
f 99/3/6 100/3/6 101/3/6
f 97/3/6 98/3/6 101/3/6
f 100/3/6 84/3/6 102/3/6
f 101/3/6 100/3/6 102/3/6
f 79/1/6 81/1/6 103/1/6
f 82/1/6 80/1/6 104/1/6
f 77/3/6 79/3/6 105/3/6
f 103/1/6 104/1/6 105/1/6
f 79/1/6 103/1/6 105/1/6
f 104/1/6 80/1/6 106/1/6
f 105/1/6 104/1/6 106/1/6
f 80/3/6 78/3/6 106/3/6
f 77/3/6 105/3/6 107/3/6
f 105/3/6 106/3/6 107/3/6
f 106/3/6 78/3/6 108/3/6
f 107/3/6 106/3/6 108/3/6
f 109/2/6 110/2/6 111/2/6
f 111/2/6 110/2/6 112/2/6
f 109/2/6 111/2/6 113/2/6
f 112/2/6 110/2/6 114/2/6
f 109/2/6 113/2/6 115/2/6
f 113/2/6 114/2/6 115/2/6
f 114/2/6 110/2/6 116/2/6
f 115/2/6 114/2/6 116/2/6
f 117/2/6 118/2/6 119/2/6
f 119/2/6 118/2/6 120/2/6
f 117/2/6 119/2/6 121/2/6
f 120/2/6 118/2/6 122/2/6
f 117/2/6 121/2/6 123/2/6
f 121/2/6 122/2/6 123/2/6
f 122/2/6 118/2/6 124/2/6
f 123/2/6 122/2/6 124/2/6
